<svg width="50" height="51" viewBox="0 0 50 51" fill="none" xmlns="http://www.w3.org/2000/svg">
<path d="M21.6787 0.976803C9.72446 0.976803 0 10.6833 0 22.6155C0 34.5476 9.72446 44.2541 21.6787 44.2541C25.3332 44.2541 28.9256 43.3886 31.9607 41.7193C32.2038 42.0113 32.4733 42.2804 32.7659 42.523L38.9598 48.7055C39.5317 49.3479 40.2291 49.8668 41.0093 50.2304C41.7894 50.594 42.6357 50.7945 43.4963 50.8198C44.3569 50.8451 45.2136 50.6946 46.0138 50.3774C46.814 50.0603 47.5408 49.5832 48.1496 48.9755C48.7584 48.3679 49.2363 47.6424 49.554 46.8437C49.8718 46.045 50.0226 45.1899 49.9973 44.3309C49.9719 43.4719 49.771 42.6271 49.4067 41.8484C49.0425 41.0698 48.5226 40.3736 47.879 39.8028L41.6851 33.6203C41.3834 33.319 41.0513 33.0497 40.6941 32.8166C42.3664 29.7871 43.4194 26.2631 43.4194 22.5536C43.4194 10.6215 33.695 0.914978 21.7407 0.914978L21.6787 0.976803ZM21.6787 7.15928C30.2883 7.15928 37.1636 14.0218 37.1636 22.6155C37.1636 26.6959 35.677 30.4672 33.0756 33.2493C33.0136 33.3112 32.9517 33.373 32.8897 33.4348C32.5972 33.6775 32.3276 33.9465 32.0845 34.2385C29.3592 36.7115 25.6428 38.1335 21.6168 38.1335C13.0072 38.1335 6.13199 31.2709 6.13199 22.6773C6.13199 14.0837 13.0072 7.2211 21.6168 7.2211L21.6787 7.15928Z" fill="#FF62AD"/>
</svg>
