<svg width="430" height="202" viewBox="0 0 430 202" fill="none" xmlns="http://www.w3.org/2000/svg">
<mask id="mask0_577_7053" style="mask-type:luminance" maskUnits="userSpaceOnUse" x="150" y="0" width="130" height="123">
<path d="M150 0.857666H280V122.158H150V0.857666Z" fill="white"/>
</mask>
<g mask="url(#mask0_577_7053)">
<path d="M161.774 12.709C169.39 5.09909 179.445 1.22904 189.497 1.07209C196.933 0.945773 204.369 2.85209 210.923 6.77573C209.24 8.11552 206.494 11.1358 205.017 12.8622C200.25 10.3357 194.912 9.14906 189.654 9.25241C181.647 9.35577 173.693 12.4755 167.63 18.5122C161.517 24.5527 158.433 32.4727 158.276 40.4425C158.172 48.4659 161.022 56.4931 166.878 62.7365L167.085 62.9929L167.63 63.4829L214.812 110.49L233.623 91.76L211.027 69.2631C204.005 62.2695 200.197 53.2661 199.445 44.1059C198.747 34.7925 201.286 25.2494 207.065 17.3523L207.115 17.3026L207.322 16.9925H207.376L207.583 16.6825V16.6289H207.633L207.736 16.4757L207.997 16.1657V16.1159L208.101 16.0126C208.358 15.7025 208.542 15.469 208.749 15.2125C208.852 15.1092 209.086 14.8259 209.447 14.4125L209.654 14.2058L209.861 13.9455L210.252 13.5091H210.302L210.95 12.8124L211.004 12.7588L211.157 12.5559H211.211C211.522 12.2459 211.805 11.9626 212.116 11.6525H212.17L212.427 11.3922C212.584 11.2391 212.737 11.0822 212.868 11.0056L213.178 10.6955L213.566 10.3855V10.3357L213.957 10.0257L214.268 9.7156H214.317L214.578 9.50889L215.019 9.17586H215.069C218.593 6.38911 222.532 4.37561 226.601 2.98224C230.77 1.58887 235.149 0.892181 239.583 0.892181C243.958 0.892181 248.338 1.58887 252.51 2.98224C253.208 3.23871 253.857 3.47222 254.505 3.72869L254.608 3.78228L254.815 3.83204L254.869 3.88563C259.636 5.81875 264.115 8.68588 268.004 12.5559C271.992 16.5255 274.922 21.119 276.917 26.0226C276.917 26.126 276.966 26.2294 277.02 26.3327C279.118 31.776 280 37.5792 279.663 43.3096C279.118 53.2661 275.13 61.8828 268.315 68.7731V68.8229C268.211 68.9263 268.108 69.0296 268.004 69.133L243.13 93.8998L214.812 122.127L161.774 69.2899H161.724L157.992 65.5232L158.249 65.2629C152.627 57.9362 149.881 49.1128 150.038 40.366C150.245 30.3061 154.13 20.296 161.774 12.709ZM239.475 85.9798L262.071 63.4829C267.64 57.8865 270.723 50.7627 271.268 43.4628C271.605 38.6128 270.93 33.6594 269.093 29.0391C269.039 28.9357 268.99 28.8324 268.936 28.729C267.383 25.0657 265.155 21.609 262.175 18.6156L262.018 18.4089C258.884 15.3388 255.256 13.0191 251.368 11.4688C251.264 11.419 251.214 11.3654 251.111 11.3654C250.67 11.1626 250.202 11.0324 249.765 10.8755C247.613 10.129 245.435 9.63904 243.207 9.38256H243.053L242.896 9.32897H242.536L242.225 9.27921H242.171C241.42 9.22562 240.668 9.17586 239.943 9.17586C238.543 9.12226 237.12 9.22562 235.667 9.38256H235.54L235.487 9.43233H235.333C233.232 9.6888 231.161 10.1788 229.113 10.8755C225.876 11.9626 222.739 13.6124 219.966 15.7293L219.579 16.0623L219.372 16.2193L219.111 16.426H219.061L218.751 16.6825L218.44 16.9925L218.129 17.249L217.815 17.5591H217.765L217.558 17.7658C217.297 17.9725 217.067 18.206 216.856 18.4625L215.771 19.5458V19.5994L215.564 19.8022C215.357 20.0625 215.123 20.296 214.916 20.5525C214.709 20.809 214.524 20.9889 214.371 21.1956L214.11 21.5325L214.007 21.6358H214.06L214.007 21.6856H213.957L213.75 21.9459L213.593 22.2024L213.543 22.2559C208.956 28.4993 206.985 36.0825 207.529 43.5125C208.128 50.843 211.157 57.9898 216.779 63.5365L239.475 85.9798ZM255.049 25.5059C259.325 29.8161 261.473 35.4126 261.473 41.0129C261.473 46.6093 259.325 52.2594 255.049 56.5161C250.723 60.7727 245.101 62.9661 239.475 62.9661C233.803 62.9661 228.181 60.7995 223.905 56.5161C219.579 52.2594 217.428 46.6093 217.428 41.0129C217.428 35.4126 219.579 29.8161 223.905 25.5059C228.181 21.2492 233.803 19.0558 239.475 19.0558C245.101 19.0558 250.723 21.2492 255.049 25.5059ZM249.166 31.2861C246.474 28.6027 242.95 27.2859 239.475 27.2859C235.955 27.2859 232.403 28.6256 229.734 31.2861C227.042 33.9695 225.719 37.4759 225.719 40.9861C225.719 44.4963 227.065 48.0295 229.734 50.6861C232.43 53.3695 235.955 54.6863 239.475 54.6863C242.95 54.6863 246.497 53.3427 249.166 50.6861C251.862 48.0027 253.182 44.4963 253.182 40.9861C253.182 37.4759 251.862 33.9695 249.166 31.2861Z" fill="#FF62AD"/>
</g>
<path d="M21.4062 170.132H47.4712C60.2427 170.132 65.2756 164.692 65.2756 154.151V152.058C65.2756 141.448 60.2427 136.004 47.4712 136.004H21.4062C8.71299 136.004 3.60612 141.517 3.60612 152.058V154.151C3.60612 164.692 8.71299 170.132 21.4062 170.132ZM23.4333 161.131C16.5995 161.131 14.046 158.548 14.046 153.525V152.615C14.046 147.592 16.5995 145.009 23.4333 145.009H45.5181C52.3562 145.009 54.8357 147.592 54.8357 152.615V153.525C54.8357 158.548 52.3562 161.131 45.5181 161.131H23.4333ZM0 196.794H68.8817V187.721H39.6587V173.623H29.2187V187.721H0V196.794Z" fill="#66002F"/>
<path d="M71.1922 153.173H129.86V145.987H81.6321V136.004H71.1922V153.173ZM66.0853 166.017H134.967V158.758H66.0853V166.017ZM71.1922 199.934H130.382V193.165H81.6321V188.557H129.86V170.693H71.1922V177.463H119.416V181.787H71.1922V199.934Z" fill="#66002F"/>
<path d="M188.733 199.934H199.173V134.61H188.733V199.934ZM158.083 172.924H160.489C174.161 172.924 181.895 166.644 181.895 155.198V153.242C181.895 141.869 174.161 135.515 160.489 135.515H158.083C144.49 135.515 136.751 141.869 136.751 153.242V155.198C136.751 166.644 144.49 172.924 158.083 172.924ZM158.91 163.992C151.398 163.992 147.191 160.989 147.191 154.709V153.803C147.191 147.519 151.398 144.52 158.91 144.52H159.662C167.175 144.52 171.455 147.519 171.455 153.803V154.709C171.455 160.989 167.175 163.992 159.662 163.992H158.91ZM134.124 196.374H184.527V187.304H134.124V196.374Z" fill="#66002F"/>
<path d="M268.458 201.486H277.998V136.162H268.458V162.263H253.507V171.336H268.458V201.486ZM285.958 201.486H295.424V136.162H285.958V201.486ZM231.349 198.136H263.199V189.062H241.415V146.561H261.472V137.556H231.349V198.136Z" fill="#FF62AD"/>
<path d="M350.243 201.486H360.683V136.162H350.243V201.486ZM316.891 198.693H319.593C331.838 198.693 338.15 193.738 338.15 182.782V152.91C338.15 141.954 331.912 136.999 319.593 136.999H316.891C304.494 136.999 298.334 141.954 298.334 152.91V182.782C298.334 193.738 304.572 198.693 316.891 198.693ZM317.718 189.693C312.159 189.693 308.779 187.599 308.779 182.155V153.541C308.779 148.097 312.159 146.003 317.718 146.003H318.766C324.252 146.003 327.705 148.097 327.705 153.541V182.155C327.705 187.599 324.252 189.693 318.766 189.693H317.718Z" fill="#FF62AD"/>
<path d="M365.472 179.363H425.941V170.92H375.917V162.473H424.893V154.03H375.917V145.724H425.641V137.346H365.472V179.363ZM361.118 198.346H430V189.903H361.118V198.346Z" fill="#FF62AD"/>
</svg>
