<svg xmlns="http://www.w3.org/2000/svg" xmlns:xlink="http://www.w3.org/1999/xlink" width="300" zoomAndPan="magnify" viewBox="15 45 355 254.999991" height="240" preserveAspectRatio="xMidYMid meet" version="1.0"><defs><g/><clipPath id="5f1c2cc696"><path d="M 18 123.21875 L 150.414062 123.21875 L 150.414062 247 L 18 247 Z M 18 123.21875 " clip-rule="nonzero"/></clipPath></defs><rect x="-37.5" width="450" fill="#ffffff" y="-37.499999" height="449.999989" fill-opacity="1"/><rect x="-37.5" width="450" fill="#ffffff" y="-37.499999" height="449.999989" fill-opacity="1"/><rect x="-37.5" width="450" fill="#ffffff" y="-37.499999" height="449.999989" fill-opacity="1"/><g fill="#66002f" fill-opacity="1"><g transform="translate(168.456272, 166.266361)"><g><path d="M 20.640625 -17.472656 L 44.046875 -17.472656 C 55.515625 -17.472656 60.035156 -22.730469 60.035156 -32.917969 L 60.035156 -34.941406 C 60.035156 -45.195312 55.515625 -50.457031 44.046875 -50.457031 L 20.640625 -50.457031 C 9.242188 -50.457031 4.65625 -45.128906 4.65625 -34.941406 L 4.65625 -32.917969 C 4.65625 -22.730469 9.242188 -17.472656 20.640625 -17.472656 Z M 22.460938 -26.171875 C 16.324219 -26.171875 14.03125 -28.667969 14.03125 -33.523438 L 14.03125 -34.402344 C 14.03125 -39.257812 16.324219 -41.753906 22.460938 -41.753906 L 42.292969 -41.753906 C 48.433594 -41.753906 50.660156 -39.257812 50.660156 -34.402344 L 50.660156 -33.523438 C 50.660156 -28.667969 48.433594 -26.171875 42.292969 -26.171875 Z M 1.417969 8.296875 L 63.273438 8.296875 L 63.273438 -0.472656 L 37.03125 -0.472656 L 37.03125 -14.097656 L 27.65625 -14.097656 L 27.65625 -0.472656 L 1.417969 -0.472656 Z M 1.417969 8.296875 "/></g></g></g><g fill="#66002f" fill-opacity="1"><g transform="translate(227.800587, 166.266361)"><g><path d="M 6.003906 -33.863281 L 58.6875 -33.863281 L 58.6875 -40.808594 L 15.378906 -40.808594 L 15.378906 -50.457031 L 6.003906 -50.457031 Z M 1.417969 -21.449219 L 63.273438 -21.449219 L 63.273438 -28.464844 L 1.417969 -28.464844 Z M 6.003906 11.332031 L 59.15625 11.332031 L 59.15625 4.789062 L 15.378906 4.789062 L 15.378906 0.335938 L 58.6875 0.335938 L 58.6875 -16.929688 L 6.003906 -16.929688 L 6.003906 -10.386719 L 49.308594 -10.386719 L 49.308594 -6.207031 L 6.003906 -6.207031 Z M 6.003906 11.332031 "/></g></g></g><g fill="#66002f" fill-opacity="1"><g transform="translate(287.144901, 166.266361)"><g><path d="M 52.210938 11.332031 L 61.585938 11.332031 L 61.585938 -51.804688 L 52.210938 -51.804688 Z M 24.6875 -14.773438 L 26.847656 -14.773438 C 39.125 -14.773438 46.070312 -20.84375 46.070312 -31.90625 L 46.070312 -33.796875 C 46.070312 -44.789062 39.125 -50.929688 26.847656 -50.929688 L 24.6875 -50.929688 C 12.480469 -50.929688 5.53125 -44.789062 5.53125 -33.796875 L 5.53125 -31.90625 C 5.53125 -20.84375 12.480469 -14.773438 24.6875 -14.773438 Z M 25.429688 -23.40625 C 18.683594 -23.40625 14.90625 -26.308594 14.90625 -32.378906 L 14.90625 -33.253906 C 14.90625 -39.328125 18.683594 -42.226562 25.429688 -42.226562 L 26.105469 -42.226562 C 32.851562 -42.226562 36.695312 -39.328125 36.695312 -33.253906 L 36.695312 -32.378906 C 36.695312 -26.308594 32.851562 -23.40625 26.105469 -23.40625 Z M 3.171875 7.890625 L 48.433594 7.890625 L 48.433594 -0.875 L 3.171875 -0.875 Z M 3.171875 7.890625 "/></g></g></g><g fill="#ff62ad" fill-opacity="1"><g transform="translate(168.456272, 235.03414)"><g><path d="M 36.898438 11.332031 L 45.464844 11.332031 L 45.464844 -51.804688 L 36.898438 -51.804688 L 36.898438 -26.578125 L 23.472656 -26.578125 L 23.472656 -17.808594 L 36.898438 -17.808594 Z M 52.613281 11.332031 L 61.113281 11.332031 L 61.113281 -51.804688 L 52.613281 -51.804688 Z M 3.574219 8.09375 L 32.175781 8.09375 L 32.175781 -0.675781 L 12.613281 -0.675781 L 12.613281 -41.753906 L 30.625 -41.753906 L 30.625 -50.457031 L 3.574219 -50.457031 Z M 3.574219 8.09375 "/></g></g></g><g fill="#ff62ad" fill-opacity="1"><g transform="translate(227.800587, 235.03414)"><g><path d="M 50.996094 11.332031 L 60.371094 11.332031 L 60.371094 -51.804688 L 50.996094 -51.804688 Z M 21.046875 8.632812 L 23.472656 8.632812 C 34.46875 8.632812 40.136719 3.84375 40.136719 -6.746094 L 40.136719 -35.617188 C 40.136719 -46.207031 34.535156 -50.996094 23.472656 -50.996094 L 21.046875 -50.996094 C 9.914062 -50.996094 4.382812 -46.207031 4.382812 -35.617188 L 4.382812 -6.746094 C 4.382812 3.84375 9.984375 8.632812 21.046875 8.632812 Z M 21.789062 -0.0664062 C 16.796875 -0.0664062 13.761719 -2.089844 13.761719 -7.351562 L 13.761719 -35.007812 C 13.761719 -40.269531 16.796875 -42.292969 21.789062 -42.292969 L 22.730469 -42.292969 C 27.65625 -42.292969 30.757812 -40.269531 30.757812 -35.007812 L 30.757812 -7.351562 C 30.757812 -2.089844 27.65625 -0.0664062 22.730469 -0.0664062 Z M 21.789062 -0.0664062 "/></g></g></g><g fill="#ff62ad" fill-opacity="1"><g transform="translate(287.144901, 235.03414)"><g><path d="M 5.328125 -10.050781 L 59.628906 -10.050781 L 59.628906 -18.210938 L 14.707031 -18.210938 L 14.707031 -26.375 L 58.6875 -26.375 L 58.6875 -34.535156 L 14.707031 -34.535156 L 14.707031 -42.5625 L 59.359375 -42.5625 L 59.359375 -50.660156 L 5.328125 -50.660156 Z M 1.417969 8.296875 L 63.273438 8.296875 L 63.273438 0.136719 L 1.417969 0.136719 Z M 1.417969 8.296875 "/></g></g></g><g clip-path="url(#5f1c2cc696)"><path fill="#ff62ad" d="M 29.992188 135.3125 C 37.75 127.546875 47.992188 123.597656 58.230469 123.4375 C 65.804688 123.308594 73.378906 125.253906 80.054688 129.257812 C 78.339844 130.625 75.542969 133.707031 74.039062 135.46875 C 69.183594 132.890625 63.746094 131.679688 58.390625 131.785156 C 50.234375 131.890625 42.132812 135.074219 35.957031 141.234375 C 29.730469 147.398438 26.589844 155.480469 26.429688 163.613281 C 26.324219 171.800781 29.226562 179.992188 35.191406 186.363281 L 35.402344 186.625 L 35.957031 187.125 L 84.015625 235.09375 L 103.175781 215.980469 L 80.160156 193.023438 C 73.007812 185.886719 69.128906 176.699219 68.363281 167.351562 C 67.652344 157.847656 70.238281 148.109375 76.125 140.050781 L 76.175781 140 L 76.386719 139.683594 L 76.441406 139.683594 L 76.652344 139.367188 L 76.652344 139.3125 L 76.703125 139.3125 L 76.808594 139.15625 L 77.074219 138.839844 L 77.074219 138.789062 L 77.179688 138.683594 C 77.441406 138.367188 77.628906 138.128906 77.839844 137.867188 C 77.945312 137.761719 78.183594 137.472656 78.550781 137.050781 L 78.761719 136.839844 L 78.972656 136.574219 L 79.371094 136.128906 L 79.421875 136.128906 L 80.082031 135.417969 L 80.136719 135.363281 L 80.292969 135.15625 L 80.347656 135.15625 C 80.664062 134.839844 80.953125 134.550781 81.269531 134.234375 L 81.324219 134.234375 L 81.585938 133.96875 C 81.746094 133.8125 81.902344 133.652344 82.035156 133.574219 L 82.351562 133.257812 L 82.746094 132.941406 L 82.746094 132.890625 L 83.144531 132.574219 L 83.460938 132.257812 L 83.511719 132.257812 L 83.777344 132.046875 L 84.226562 131.707031 L 84.277344 131.707031 C 87.867188 128.863281 91.878906 126.808594 96.023438 125.386719 C 100.269531 123.964844 104.730469 123.253906 109.246094 123.253906 C 113.703125 123.253906 118.164062 123.964844 122.414062 125.386719 C 123.125 125.648438 123.785156 125.886719 124.445312 126.148438 L 124.550781 126.203125 L 124.761719 126.253906 L 124.816406 126.308594 C 129.671875 128.28125 134.234375 131.207031 138.195312 135.15625 C 142.257812 139.207031 145.242188 143.894531 147.273438 148.898438 C 147.273438 149.003906 147.324219 149.109375 147.378906 149.214844 C 149.515625 154.769531 150.414062 160.691406 150.070312 166.539062 C 149.515625 176.699219 145.453125 185.492188 138.511719 192.523438 L 138.511719 192.574219 C 138.40625 192.679688 138.300781 192.785156 138.195312 192.890625 L 112.859375 218.164062 L 84.015625 246.96875 L 29.992188 193.050781 L 29.941406 193.050781 L 26.140625 189.207031 L 26.402344 188.941406 C 20.675781 181.464844 17.878906 172.460938 18.039062 163.535156 C 18.25 153.269531 22.207031 143.054688 29.992188 135.3125 Z M 109.136719 210.082031 L 132.152344 187.125 C 137.824219 181.414062 140.964844 174.144531 141.519531 166.695312 C 141.863281 161.746094 141.175781 156.691406 139.304688 151.976562 C 139.25 151.871094 139.199219 151.765625 139.144531 151.660156 C 137.5625 147.921875 135.292969 144.394531 132.257812 141.339844 L 132.097656 141.128906 C 128.90625 137.996094 125.210938 135.628906 121.25 134.046875 C 121.144531 133.996094 121.09375 133.941406 120.988281 133.941406 C 120.539062 133.734375 120.0625 133.601562 119.617188 133.441406 C 117.425781 132.679688 115.207031 132.179688 112.9375 131.917969 L 112.78125 131.917969 L 112.621094 131.863281 L 112.253906 131.863281 L 111.9375 131.8125 L 111.882812 131.8125 C 111.117188 131.757812 110.351562 131.707031 109.613281 131.707031 C 108.1875 131.652344 106.738281 131.757812 105.257812 131.917969 L 105.128906 131.917969 L 105.074219 131.96875 L 104.917969 131.96875 C 102.777344 132.230469 100.667969 132.730469 98.582031 133.441406 C 95.285156 134.550781 92.089844 136.234375 89.265625 138.394531 L 88.871094 138.734375 L 88.660156 138.894531 L 88.394531 139.105469 L 88.34375 139.105469 L 88.027344 139.367188 L 87.710938 139.683594 L 87.394531 139.945312 L 87.074219 140.261719 L 87.023438 140.261719 L 86.8125 140.472656 C 86.546875 140.683594 86.3125 140.921875 86.097656 141.183594 L 84.992188 142.289062 L 84.992188 142.34375 L 84.78125 142.550781 C 84.570312 142.816406 84.332031 143.054688 84.121094 143.316406 C 83.910156 143.578125 83.722656 143.761719 83.566406 143.972656 L 83.300781 144.316406 L 83.195312 144.421875 L 83.25 144.421875 L 83.195312 144.472656 L 83.144531 144.472656 L 82.933594 144.738281 L 82.773438 145 L 82.722656 145.054688 C 78.050781 151.425781 76.042969 159.164062 76.597656 166.746094 C 77.207031 174.226562 80.292969 181.519531 86.019531 187.179688 Z M 125 148.371094 C 129.355469 152.769531 131.542969 158.480469 131.542969 164.195312 C 131.542969 169.90625 129.355469 175.671875 125 180.015625 C 120.59375 184.359375 114.867188 186.597656 109.136719 186.597656 C 103.359375 186.597656 97.632812 184.386719 93.277344 180.015625 C 88.871094 175.671875 86.679688 169.90625 86.679688 164.195312 C 86.679688 158.480469 88.871094 152.769531 93.277344 148.371094 C 97.632812 144.027344 103.359375 141.789062 109.136719 141.789062 C 114.867188 141.789062 120.59375 144.027344 125 148.371094 Z M 119.007812 154.269531 C 116.265625 151.53125 112.675781 150.1875 109.136719 150.1875 C 105.550781 150.1875 101.933594 151.554688 99.214844 154.269531 C 96.472656 157.007812 95.125 160.585938 95.125 164.167969 C 95.125 167.75 96.496094 171.355469 99.214844 174.066406 C 101.960938 176.804688 105.550781 178.148438 109.136719 178.148438 C 112.675781 178.148438 116.289062 176.777344 119.007812 174.066406 C 121.753906 171.328125 123.097656 167.75 123.097656 164.167969 C 123.097656 160.585938 121.753906 157.007812 119.007812 154.269531 Z M 119.007812 154.269531 " fill-opacity="1" fill-rule="nonzero"/></g></svg>