<svg width="200" height="32" viewBox="0 0 200 32" fill="none" xmlns="http://www.w3.org/2000/svg">
<path d="M9.95636 16.7305H22.0796C28.0199 16.7305 30.3607 14.2003 30.3607 9.29776V8.32402C30.3607 3.38952 28.0199 0.857422 22.0796 0.857422H9.95636C4.05255 0.857422 1.67727 3.42148 1.67727 8.32402V9.29776C1.67727 14.2003 4.05255 16.7305 9.95636 16.7305ZM10.8992 12.5442C7.72068 12.5442 6.53304 11.343 6.53304 9.00639V8.58343C6.53304 6.24683 7.72068 5.04563 10.8992 5.04563H21.1712C24.3517 5.04563 25.505 6.24683 25.505 8.58343V9.00639C25.505 11.343 24.3517 12.5442 21.1712 12.5442H10.8992ZM0 29.1316H32.038V24.9114H18.4459V18.3547H13.5901V24.9114H0V29.1316Z" fill="#66002F"/>
<path d="M33.1131 8.84284H60.4005V5.50055H37.9689V0.857422H33.1131V8.84284ZM30.7378 14.8169H62.7758V11.4407H30.7378V14.8169ZM33.1131 30.5922H60.6433V27.4435H37.9689V25.3006H60.4005V16.9918H33.1131V20.1405H55.5427V22.1519H33.1131V30.5922Z" fill="#66002F"/>
<path d="M87.7833 30.5923H92.6391V0.208984H87.7833V30.5923ZM73.5276 18.0296H74.6464C81.0054 18.0296 84.6028 15.1083 84.6028 9.78472V8.8749C84.6028 3.58512 81.0054 0.630061 74.6464 0.630061H73.5276C67.2049 0.630061 63.6056 3.58512 63.6056 8.8749V9.78472C63.6056 15.1083 67.2049 18.0296 73.5276 18.0296ZM73.912 13.8752C70.4178 13.8752 68.4614 12.4785 68.4614 9.55727V9.13619C68.4614 6.21309 70.4178 4.81827 73.912 4.81827H74.262C77.7561 4.81827 79.747 6.21309 79.747 9.13619V9.55727C79.747 12.4785 77.7561 13.8752 74.262 13.8752H73.912ZM62.3835 28.9362H85.8268V24.7179H62.3835V28.9362Z" fill="#66002F"/>
<path d="M124.865 31.3189H129.302V0.935547H124.865V13.0753H117.911V17.2955H124.865V31.3189ZM133.004 31.3189H137.407V0.935547H133.004V31.3189ZM107.604 29.7605H122.419V25.5403H112.286V5.77229H121.615V1.58408H107.604V29.7605Z" fill="#FF62AD"/>
<path d="M162.903 31.3189H167.759V0.935547H162.903V31.3189ZM147.391 30.0199H148.648C154.343 30.0199 157.279 27.7153 157.279 22.6191V8.72547C157.279 3.62931 154.378 1.32467 148.648 1.32467H147.391C141.625 1.32467 138.76 3.62931 138.76 8.72547V22.6191C138.76 27.7153 141.661 30.0199 147.391 30.0199ZM147.776 25.8336C145.19 25.8336 143.618 24.8599 143.618 22.3278V9.01872C143.618 6.48662 145.19 5.51288 147.776 5.51288H148.263C150.815 5.51288 152.421 6.48662 152.421 9.01872V22.3278C152.421 24.8599 150.815 25.8336 148.263 25.8336H147.776Z" fill="#FF62AD"/>
<path d="M169.987 21.0268H198.112V17.0999H174.845V13.1711H197.625V9.24422H174.845V5.38122H197.973V1.48438H169.987V21.0268ZM167.962 29.8563H200V25.9294H167.962V29.8563Z" fill="#FF62AD"/>
</svg>
