<svg width="80" height="80" viewBox="0 0 80 80" fill="none" xmlns="http://www.w3.org/2000/svg">
<g opacity="0.5" clip-path="url(#clip0_774_7472)">
<path d="M40 75C30.7174 75 21.815 71.3125 15.2513 64.7487C8.68749 58.185 5 49.2826 5 40C5 30.7174 8.68749 21.815 15.2513 15.2513C21.815 8.68749 30.7174 5 40 5C49.2826 5 58.185 8.68749 64.7487 15.2513C71.3125 21.815 75 30.7174 75 40C75 49.2826 71.3125 58.185 64.7487 64.7487C58.185 71.3125 49.2826 75 40 75ZM40 80C50.6087 80 60.7828 75.7857 68.2843 68.2843C75.7857 60.7828 80 50.6087 80 40C80 29.3913 75.7857 19.2172 68.2843 11.7157C60.7828 4.21427 50.6087 0 40 0C29.3913 0 19.2172 4.21427 11.7157 11.7157C4.21427 19.2172 0 29.3913 0 40C0 50.6087 4.21427 60.7828 11.7157 68.2843C19.2172 75.7857 29.3913 80 40 80Z" fill="#818087"/>
<path d="M40 20C40.663 20 41.2989 20.2634 41.7678 20.7322C42.2366 21.2011 42.5 21.837 42.5 22.5V37.5H57.5C58.163 37.5 58.7989 37.7634 59.2678 38.2322C59.7366 38.7011 60 39.337 60 40C60 40.663 59.7366 41.2989 59.2678 41.7678C58.7989 42.2366 58.163 42.5 57.5 42.5H42.5V57.5C42.5 58.163 42.2366 58.7989 41.7678 59.2678C41.2989 59.7366 40.663 60 40 60C39.337 60 38.7011 59.7366 38.2322 59.2678C37.7634 58.7989 37.5 58.163 37.5 57.5V42.5H22.5C21.837 42.5 21.2011 42.2366 20.7322 41.7678C20.2634 41.2989 20 40.663 20 40C20 39.337 20.2634 38.7011 20.7322 38.2322C21.2011 37.7634 21.837 37.5 22.5 37.5H37.5V22.5C37.5 21.837 37.7634 21.2011 38.2322 20.7322C38.7011 20.2634 39.337 20 40 20Z" fill="#818087"/>
</g>
<defs>
<clipPath id="clip0_774_7472">
<rect width="80" height="80" fill="white"/>
</clipPath>
</defs>
</svg>
