<svg width="60" height="71" viewBox="0 0 60 71" fill="none" xmlns="http://www.w3.org/2000/svg">
<path d="M24.7425 22.2454C24.8253 22.2023 24.916 22.1844 25.0062 22.1936C25.0963 22.2027 25.1831 22.2386 25.2586 22.2978C25.334 22.357 25.3956 22.4376 25.4378 22.5324C25.48 22.6272 25.5014 22.7329 25.5 22.84V27.9565C25.5 28.5449 25.6975 29.1093 26.0492 29.5254C26.4008 29.9415 26.8777 30.1752 27.375 30.1752C29.8762 30.1752 34.9237 30.1974 39.75 33.8228C43.44 36.5918 47.2125 41.6328 49.4812 51.0226C45.6562 46.6605 41.2875 44.2953 37.4625 43.0395C35.1114 42.2711 32.6952 41.8157 30.2587 41.6817C29.2614 41.6298 28.2625 41.6417 27.2662 41.7172H27.2175L27.1987 41.7216L27.375 43.9315L27.1875 41.7216C26.7247 41.7766 26.2957 42.0333 25.9838 42.4417C25.6719 42.8501 25.4995 43.381 25.5 43.9315V49.0479C25.5 49.5272 25.0875 49.8289 24.7425 49.6425L9.80248 36.6273C9.75177 36.5828 9.6992 36.5414 9.64498 36.5031C9.56344 36.4451 9.49597 36.3631 9.44912 36.2652C9.40228 36.1672 9.37767 36.0565 9.37767 35.944C9.37767 35.8314 9.40228 35.7207 9.44912 35.6228C9.49597 35.5248 9.56344 35.4428 9.64498 35.3848C9.69922 35.3466 9.75178 35.3051 9.80248 35.2606L24.7425 22.2454ZM29.25 46.0881C29.505 46.0881 29.7862 46.1014 30.0862 46.1147C31.7137 46.2035 33.9637 46.4963 36.4612 47.3173C41.4337 48.9503 47.3212 52.6512 51.2362 60.9848C51.4479 61.4346 51.7853 61.7833 52.1904 61.9711C52.5956 62.1589 53.0433 62.1741 53.4569 62.0142C53.8705 61.8542 54.2242 61.5289 54.4574 61.0942C54.6905 60.6595 54.7887 60.1423 54.735 59.6313C52.995 43.1682 47.6625 34.5062 41.76 30.0776C37.0912 26.572 32.2837 25.8975 29.25 25.7688V22.84C29.2503 21.9262 29.0422 21.0292 28.6476 20.2437C28.253 19.4582 27.6865 18.8133 27.008 18.377C26.3294 17.9408 25.5639 17.7294 24.7923 17.7651C24.0206 17.8008 23.2714 18.0824 22.6237 18.58L7.64623 31.6263C7.02703 32.0836 6.51638 32.72 6.16235 33.4753C5.80832 34.2307 5.62256 35.0802 5.62256 35.944C5.62256 36.8077 5.80832 37.6573 6.16235 38.4126C6.51638 39.168 7.02703 39.8043 7.64623 40.2617L22.6237 53.3079C23.2714 53.8055 24.0206 54.0871 24.7923 54.1228C25.5639 54.1585 26.3294 53.9471 27.008 53.5109C27.6865 53.0746 28.253 52.4297 28.6476 51.6442C29.0422 50.8587 29.2503 49.9617 29.25 49.0479V46.0881Z" fill="black"/>
</svg>
