<svg width="73" height="75" viewBox="0 0 73 75" fill="none" xmlns="http://www.w3.org/2000/svg">
<g clip-path="url(#clip0_772_5561)">
<path d="M22.8125 37.5C25.2326 37.5 27.5536 36.5123 29.2648 34.7541C30.9761 32.996 31.9375 30.6114 31.9375 28.125C31.9375 25.6386 30.9761 23.254 29.2648 21.4959C27.5536 19.7377 25.2326 18.75 22.8125 18.75C20.3924 18.75 18.0714 19.7377 16.3602 21.4959C14.6489 23.254 13.6875 25.6386 13.6875 28.125C13.6875 30.6114 14.6489 32.996 16.3602 34.7541C18.0714 36.5123 20.3924 37.5 22.8125 37.5ZM41.0625 25.7812C41.0625 25.1596 41.3028 24.5635 41.7307 24.124C42.1585 23.6844 42.7387 23.4375 43.3438 23.4375H61.5938C62.1988 23.4375 62.779 23.6844 63.2068 24.124C63.6347 24.5635 63.875 25.1596 63.875 25.7812C63.875 26.4029 63.6347 26.999 63.2068 27.4385C62.779 27.8781 62.1988 28.125 61.5938 28.125H43.3438C42.7387 28.125 42.1585 27.8781 41.7307 27.4385C41.3028 26.999 41.0625 26.4029 41.0625 25.7812ZM41.0625 37.5C41.0625 36.8784 41.3028 36.2823 41.7307 35.8427C42.1585 35.4032 42.7387 35.1562 43.3438 35.1562H61.5938C62.1988 35.1562 62.779 35.4032 63.2068 35.8427C63.6347 36.2823 63.875 36.8784 63.875 37.5C63.875 38.1216 63.6347 38.7177 63.2068 39.1573C62.779 39.5968 62.1988 39.8438 61.5938 39.8438H43.3438C42.7387 39.8438 42.1585 39.5968 41.7307 39.1573C41.3028 38.7177 41.0625 38.1216 41.0625 37.5ZM45.625 49.2188C45.625 48.5971 45.8653 48.001 46.2932 47.5615C46.721 47.1219 47.3012 46.875 47.9062 46.875H61.5938C62.1988 46.875 62.779 47.1219 63.2068 47.5615C63.6347 48.001 63.875 48.5971 63.875 49.2188C63.875 49.8404 63.6347 50.4365 63.2068 50.876C62.779 51.3156 62.1988 51.5625 61.5938 51.5625H47.9062C47.3012 51.5625 46.721 51.3156 46.2932 50.876C45.8653 50.4365 45.625 49.8404 45.625 49.2188Z" fill="black"/>
<path d="M9.125 9.375C6.7049 9.375 4.38392 10.3627 2.67265 12.1209C0.961381 13.879 0 16.2636 0 18.75L0 56.25C0 58.7364 0.961381 61.121 2.67265 62.8791C4.38392 64.6373 6.7049 65.625 9.125 65.625H63.875C66.2951 65.625 68.6161 64.6373 70.3273 62.8791C72.0386 61.121 73 58.7364 73 56.25V18.75C73 16.2636 72.0386 13.879 70.3273 12.1209C68.6161 10.3627 66.2951 9.375 63.875 9.375H9.125ZM4.5625 18.75C4.5625 17.5068 5.04319 16.3145 5.89883 15.4354C6.75446 14.5564 7.91495 14.0625 9.125 14.0625H63.875C65.0851 14.0625 66.2455 14.5564 67.1012 15.4354C67.9568 16.3145 68.4375 17.5068 68.4375 18.75V56.25C68.4375 57.4932 67.9568 58.6855 67.1012 59.5646C66.2455 60.4436 65.0851 60.9375 63.875 60.9375H40.88C40.9986 60.1734 41.0625 59.3906 41.0625 58.5938C41.0625 49.5328 32.8956 42.1875 22.8125 42.1875C13.2951 42.1875 5.475 48.7406 4.6355 57.0984C4.58631 56.8185 4.56187 56.5345 4.5625 56.25V18.75Z" fill="black"/>
</g>
<defs>
<clipPath id="clip0_772_5561">
<rect width="73" height="75" fill="white"/>
</clipPath>
</defs>
</svg>
